<svg id="Layer_1" data-name="Layer 1" xmlns="http://www.w3.org/2000/svg" viewBox="50 40 300 150"><defs><style>path{fill:#181717}</style></defs><title>Artboard 1 copy</title><path class="cls-1" d="M135.06 179.31h-11.7v-1.22h.82c2.22 0 2.83-.68 2.83-2.93v-16.74c0-2.29-.61-2.94-2.9-2.94h-.75v-1.21h11.48c5.3 0 7.69 2.39 7.69 5.76 0 2.82-2 5-4.93 5.76 3.5.35 6.22 2.64 6.22 6.15 0 4.29-3.04 7.37-8.76 7.37zm-4.3-13.74h2.76a4.87 4.87 0 005.15-5.22c0-3.4-1.61-4.87-4.9-4.87h-3zm4.3 12.52c3.18 0 4.79-2.68 4.79-5.94 0-3.93-2.25-5.47-6.58-5.36h-2.51v7.65c0 2.72.9 3.65 3.37 3.65zm110.82 1.51l-16.71-20.79v12.84c0 5.41 1 6.23 3.22 6.44l.79.07v1.15h-9.34v-1.15l1-.07c1.86-.14 3-1.32 3-6.44v-11.27c0-3.68-1.43-4.9-3.47-4.9h-.71v-1.21H229a2 2 0 012 .93l14.42 17.92v-12c0-4.26-1.11-5.44-3.29-5.62l-.93-.07v-1.14h9.41v1.14l-.89.07c-2 .15-2.94 1.4-2.94 5.66v18.44zm27.83-1.51H273c-1.5-.07-2.32-1.18-3-2.79l-8.53-21.7-3 2.3.43.94-6.73 17.68c-.75 2-1.9 3.57-3.51 3.57H248v1.22h8.4v-1.22h-.89c-2.14-.07-2.57-1.46-1.82-3.5l1.61-4.37h8.91l1.86 4.87c.71 1.86.35 2.93-1.9 3h-.86v1.22h10.41zm-18-9.08l3.9-10.59 4.12 10.58z"/><path class="cls-1" d="M225.67 178.09H225c-1.5-.07-2.33-1.18-3-2.79l-8.54-21.7-3 2.3.42.94-6.72 17.68c-.75 2-1.9 3.57-3.51 3.57H200v1.22h8.4v-1.22h-.89c-2.15-.07-2.58-1.46-1.83-3.5l1.61-4.37h8.91l1.86 4.87c.72 1.86.36 2.93-1.89 3h-.86v1.22h10.41zm-18-9.08l3.9-10.59 4.12 10.58z"/><path class="cls-1" d="M197.34 175.16c0 2.33.6 2.93 2.89 2.93h.77v1.22h-11v-1.22h.82c2.19 0 2.83-.68 2.83-2.93v-16.74c0-2.26-.61-2.94-2.79-2.94H190v-1.21h11v1.21h-.89c-2.15 0-2.75.65-2.75 2.94zM145 179.31v-1.22h1c2.11 0 2.72-.68 2.72-2.93v-16.74c0-2.29-.61-2.94-2.86-2.94H145v-1.21h19.69l.78 5.72-1.15.18a15.93 15.93 0 00-1-1.79c-1.4-2.11-2.86-2.9-6.62-2.9h-4.29v10.27h3.72c2.22 0 3.11-1.32 3.18-3.36v-.79h1.25v9.16h-1.24v-.89c-.11-2-1-2.9-3.29-2.9h-3.61v8.33c0 2 .46 2.79 2.39 2.79h2.72c3.51 0 5.37-1.07 6.8-3.18a13.84 13.84 0 001.25-2.43l.21-.52 1.09.3-1.33 7.05zm22.41-1.22h.93c2.11 0 2.71-.68 2.71-2.93v-16.75c0-2.32-.6-2.93-2.89-2.93h-.75v-1.22h11.05v1.22h-.82c-2.18 0-2.83.68-2.83 2.93v16.85c0 2.11.43 2.83 2.4 2.83h2.32c3.87 0 6.05-1.5 7.37-3.83a23 23 0 001.22-2.5l1.22.28-1.34 7.27h-20.59zm95.27-28.57v-1.22h.93c2.11 0 2.71-.68 2.71-2.93v-16.74c0-2.29-.6-2.94-2.86-2.94h-.78v-1.21h19.68l.78 5.72-1.15.18a14.49 14.49 0 00-1-1.79c-1.39-2.11-2.86-2.9-6.62-2.9h-4.29V136h3.72c2.22 0 3.11-1.32 3.19-3.36v-.79h1.25V141H277v-.9c-.11-2-1-2.89-3.3-2.89h-3.61v8.33c0 2 .47 2.79 2.4 2.79h2.72c3.5 0 5.36-1.07 6.79-3.18a13.86 13.86 0 001.26-2.43l.2-.52 1.09.3-1.32 7.05zm-169.1.29L76.87 129v12.84c0 5.41 1 6.23 3.22 6.44l.79.07v1.15h-9.34v-1.15l1-.07c1.86-.14 3-1.32 3-6.44v-11.25c0-3.68-1.43-4.9-3.47-4.9h-.72v-1.21h5.37a2 2 0 012 .93l14.42 17.92v-12c0-4.26-1.11-5.44-3.29-5.62l-.93-.07v-1.14h9.41v1.14l-.9.07c-2 .14-2.93 1.4-2.93 5.65v18.47zm32.05-21.4c-1.08-1.86-1.76-2.68-3.29-2.75h-.54v-1.18h9.91v1.14h-.82c-1.61.07-1.9 1.22-1.18 2.4l5.4 9.19 4.86-8.05c1.15-1.82.86-3.47-.89-3.54h-.89v-1.14h8.22v1.18h-.53c-1.79 0-2.94 1.43-4.44 3.82l-5.72 9.13v6.76c0 2.25.6 2.93 2.82 2.93h.86v1.22h-11.09v-1.22h.9c2.14 0 2.75-.64 2.75-2.93V139zm44.25 19.89h.93c2.11 0 2.72-.68 2.72-2.93v-16.74c0-2.33-.61-2.94-2.9-2.94h-.75v-1.21h11.05v1.21h-.82c-2.18 0-2.83.68-2.83 2.94v16.85c0 2.11.43 2.82 2.4 2.82H182c3.86 0 6-1.5 7.37-3.83a22.11 22.11 0 001.21-2.5l1.22.29-1.39 7.26h-20.53zm35.45 1.7c-6.22 0-13-4.22-13-13 0-9 6.83-13 12.91-13s13.06 3.83 13.06 13c.02 8.66-6.53 13-12.97 13zm-.43-24.9c-5.11 0-8.19 4.26-8.19 11.52 0 6.58 3.29 12.24 9 12.24 5.51 0 8.27-4.69 8.27-11.52s-3.71-12.22-9.08-12.22zm25.72 24.42h-11.27v-1.22h.76c2.25 0 2.89-.64 2.89-2.93v-16.74c0-2.26-.57-2.94-2.79-2.94h-.86v-1.21h11.49c5 0 8.66 2 8.66 6.4 0 5.15-3.65 7.44-9.27 7.44a29.74 29.74 0 01-3.47-.21v7.26c0 2.29.57 2.93 3.11 2.93h.75zm-3.86-12.59c1.11.1 2.47.18 3.33.18 4 0 5.54-2.58 5.54-6 0-3.18-1.57-5.44-5.58-5.44h-2.4c-.75 0-.89.18-.89.93zM285 148.3h1c2.11 0 2.72-.68 2.72-2.93v-16.74c0-2.29-.61-2.94-2.86-2.94H285v-1.21h12.45c7 0 13.2 3.47 13.2 12 0 8.05-5.68 13-13.41 13H285zm10.84 0H297c6.15 0 9.3-4.9 9.3-11.48s-3.29-11.13-9.19-11.13h-3.81c-.68 0-.86.22-.86.93v18.21c0 2.76.82 3.47 3.43 3.47zm23.29-2.93c0 2.32.6 2.93 2.89 2.93h.75v1.22h-11v-1.22h.82c2.18 0 2.83-.68 2.83-2.93v-16.74c0-2.26-.61-2.94-2.79-2.94h-.86v-1.21h11v1.21h-.89c-2.15 0-2.75.65-2.75 2.94zm-248.74-3.2l-.21.52a13.84 13.84 0 01-1.25 2.43c-1.43 2.11-3.29 3.18-6.8 3.18h-2.72c-1.93 0-2.39-.75-2.39-2.79v-8.33h3.61c2.29 0 3.18.89 3.29 2.89v.9h1.24v-9.16h-1.24v.79c-.07 2-1 3.36-3.18 3.36H57v-10.27h4.29c3.76 0 5.22.79 6.62 2.9a15.93 15.93 0 011 1.79l1.15-.18-.78-5.72H49.61v1.21h.79c2.25 0 2.86.65 2.86 2.94v16.74c0 2.25-.61 2.93-2.72 2.93h-.93v1.22h20.54l1.33-7.05z"/><path class="cls-1" d="M263.54 148.3h-.68c-1.51-.07-2.33-1.18-3-2.79l-8.54-21.7-3 2.3.42.94-6.74 17.68c-.75 2-1.89 3.57-3.5 3.57h-.72v1.22h8.4v-1.22h-.88c-2.15-.07-2.58-1.46-1.83-3.5l1.61-4.37H254l1.86 4.87c.72 1.86.36 2.93-1.9 3h-.85v1.22h10.41zm-18-9.08l3.9-10.59 4.07 10.59zm101.92 9.08h-.68c-1.5-.07-2.33-1.18-3-2.79l-8.54-21.7-3 2.3.42.94-6.66 17.68c-.75 2-1.9 3.57-3.51 3.57h-.72v1.22h8.41v-1.22h-.89c-2.15-.07-2.58-1.46-1.83-3.5l1.61-4.37h8.91l1.86 4.87c.72 1.86.36 2.93-1.89 3h-.86v1.22h10.41zm-18-9.08l3.9-10.59 4.08 10.59zM98.64 137c0-8.48 6.29-13 13.16-13a14.83 14.83 0 016.73 1.83 1.64 1.64 0 00.75.21.64.64 0 00.54-.38c.17-.29.6-1.15.6-1.15h.86l.11 7.72h-1.2c-.26-1.73-2-7.08-8.11-7.08-5.91 0-9.08 4.76-9.08 11.59s3.44 12.17 9.3 12.17c5.21 0 7.49-4.49 8-7.45h1.24v8.09h-1l-.6-1.25c-.11-.25-.25-.4-.46-.4a1.32 1.32 0 00-.54.18 12.38 12.38 0 01-7 2c-7.61-.08-13.3-5.14-13.3-13.08zm46.73 0c0-8.48 6.3-13 13.17-13a14.83 14.83 0 016.73 1.83 1.61 1.61 0 00.75.21c.25 0 .39-.16.53-.38s.61-1.15.61-1.15h.84l.11 7.72h-1.2c-.26-1.73-2-7.08-8.11-7.08-5.92 0-9.08 4.76-9.08 11.59s3.43 12.17 9.3 12.17c5.2 0 7.49-4.49 8-7.45h1.25v8.09h-1s-.45-.94-.59-1.25-.25-.4-.46-.4a1.27 1.27 0 00-.54.18 12.38 12.38 0 01-7 2c-7.62-.08-13.31-5.14-13.31-13.08z"/><path d="M188.38 71.44a3.24 3.24 0 00-2 2.76 3 3 0 001.25 2.47 3.13 3.13 0 003.13.2zm6.26-9.44l-.89-2.05a3.32 3.32 0 00-1.28 3zm9.5 17.88l-.17.85.48-.21c.37 0 .83.25 1.22.25a1.05 1.05 0 00.44-.1l-.2-.53a.7.7 0 01-.29.08c-.4-.02-.85-.56-1.48-.38zm9.18 6.5a4 4 0 01-2.3 4.27l-2.28-5.23a9.48 9.48 0 002-3.39l.87 2c1.43-.62 1.47-3.34.38-4.63l-1.19.52a2.39 2.39 0 01-.83-1.81c0-1.4.75-1.88 2-2.45l.49 1.07c1.23-.53 1.3-2.84.33-4l-1.59.69-1.41-3.25a3.39 3.39 0 002.09-2.45 3.31 3.31 0 000-1.29c-.21 0-1.75 0-2.73-2.23l-2.06-4.72c-.7-.73-2.46-2.14-3.95-2.14a3.2 3.2 0 00-1.85.51 2.77 2.77 0 00-3.76.15l.42.94a8.72 8.72 0 013-.56c3.73 0 7.77 4 7.77 7.45l.32 1.34.26 1.06a4.13 4.13 0 00-3.5 0 2.93 2.93 0 00-1.8 2.42v.25a3.17 3.17 0 00.53 1.55l1.18-.5a1.39 1.39 0 01-.48-.49l.91-.39a.7.7 0 00.63.84.69.69 0 00.69-.69.77.77 0 00-.07-.34 3.13 3.13 0 01.83.42l.09-.5a4 4 0 00-1.56-.71l-.63.28.23-1a2.18 2.18 0 01.93-.21 3.48 3.48 0 012.08.55 4 4 0 00-.46 1.84 4.8 4.8 0 00.45 1.71l-1.87 10.84c-1.43 0-2.36 2-4.64 2-1 0-2.61-.47-2.61-1.56s1.51-1.54 2.62-1.54a3.41 3.41 0 012.14.66l.45-.2-.57-1.89a3.12 3.12 0 01-1.64.39 6.09 6.09 0 01-2-.35l.13-1a1.58 1.58 0 01.8 0 3 3 0 011.09.47l.61-.26-.57-.44a2.48 2.48 0 00-1.23-.58l.33-1.85a1.25 1.25 0 001.21.27 2.16 2.16 0 000 1.13l.7-.3-.24-1.09a2 2 0 00.84-1.5l-1 .43-1.29-5.62a5 5 0 00-1-2.09 4.55 4.55 0 00-3.33-1.41 4.82 4.82 0 00-2.66.92l-1.81-4.19-.93.4a2.87 2.87 0 01-2.15 3.1l-1.23-2.79a2.53 2.53 0 00-1.3 3.09 2.4 2.4 0 003.09 1.3 2.91 2.91 0 00.62-.37 4.19 4.19 0 01-.24 5.43l.77 1.82a4.73 4.73 0 01-2.34 6.07l-1.16.55-1.76-4.06a2.85 2.85 0 00-1.78 3.47 2.81 2.81 0 004 1.62l.77 1.75a4.24 4.24 0 00-1.61 3.59l-2.42 1.07a4 4 0 01-2.25-4.25 8.17 8.17 0 01-2.7-6.08 8.63 8.63 0 01.75-3.54 6.83 6.83 0 01-.55-2.68 7 7 0 011.8-4.72A6.88 6.88 0 01183 68a6.67 6.67 0 012.82-5.5 3.24 3.24 0 011.46-3.7l1.19-.61c1.72-2.91 5.8-5 10.27-5 4.28 0 8 1.87 9.68 4.57l1.94 1a3.18 3.18 0 011.51 3.43l1.32 2.31a7.34 7.34 0 01.8 4.75 7 7 0 011.8 4.72 6.83 6.83 0 01-.55 2.68 8.63 8.63 0 01.75 3.54 8.17 8.17 0 01-2.67 6.15zm-8.71.18l2.31-1-.12.74a8.75 8.75 0 01-1.87 1zm-7.4 6.68l-2.55-5.85a14 14 0 006.65 1.61 9.46 9.46 0 005.37-1.71l-.65 4.6a10.42 10.42 0 01-4.77 2.48l.41-3.65a5.67 5.67 0 00-4.46 2.48zm3.29-23.35l-.08.57a7.89 7.89 0 00-1.89-.57l-1.39.6.12-.7.08-.45a3.24 3.24 0 011.09-.19 3.37 3.37 0 012.07.7zM199.22 80l-.58 3.66-1.64-.97a7.84 7.84 0 00-1.42-4.53 3 3 0 01.09-3.71 4 4 0 01-.43-2.88l1.13.55 1.14.57 1-.42a3 3 0 01-.85-.54 2.32 2.32 0 01-.21-.25l1.31-.56a.73.73 0 00.59 1 .69.69 0 00.69-.69.65.65 0 00-.07-.34 9.13 9.13 0 011.45.58 11.4 11.4 0 01-1 1l-.52 3.89 1.41.74a3.6 3.6 0 01-2.09 2.9zm-6.45 7.93l-1.56-3.6a2 2 0 012.54.92 2 2 0 01-.98 2.64zm5.75-38.36a24.81 24.81 0 1024.81 24.8 24.8 24.8 0 00-24.81-24.84z"/></svg>