<svg xmlns="http://www.w3.org/2000/svg" class="icon__sprite">
<symbol id="icon--facebook" viewBox="0 0 10 20"><path d="M2.094 6.538H0v3.419h2.094v10.04h4.03V9.907h2.81l.299-3.376H6.124V4.608c0-.796.16-1.111.929-1.111h2.179V-.007H6.444c-2.997 0-4.348 1.319-4.348 3.846v2.692" fill="#fff" fill-rule="evenodd"/></symbol>
<symbol id="icon--instagram" viewBox="0 0 512 512"><path fill="#fff" d="M256 46.1c68.4 0 76.5.3 103.4 1.5 25 1.1 38.5 5.3 47.5 8.8 11.9 4.6 20.5 10.2 29.4 19.1 9 9 14.5 17.5 19.2 29.4 3.5 9 7.7 22.6 8.8 47.5 1.2 27 1.5 35.1 1.5 103.4s-.3 76.5-1.5 103.4c-1.1 25-5.3 38.5-8.8 47.5-4.6 11.9-10.2 20.5-19.1 29.4-9 9-17.5 14.5-29.4 19.2-9 3.5-22.6 7.7-47.5 8.8-27 1.2-35.1 1.5-103.4 1.5s-76.5-.3-103.4-1.5c-25-1.1-38.5-5.3-47.5-8.8-11.9-4.6-20.5-10.2-29.4-19.1-9-9-14.5-17.5-19.2-29.4-3.5-9-7.7-22.6-8.8-47.5-1.2-27-1.5-35.1-1.5-103.4s.3-76.5 1.5-103.4c1.1-25 5.3-38.5 8.8-47.5 4.6-11.9 10.2-20.5 19.1-29.4 9-9 17.5-14.5 29.4-19.2 9-3.5 22.6-7.7 47.5-8.8 26.9-1.2 35-1.5 103.4-1.5M256 0c-69.5 0-78.2.3-105.5 1.5-27.2 1.2-45.9 5.6-62.1 11.9C71.5 20 57.2 28.7 43 43 28.7 57.2 20 71.5 13.4 88.3c-6.3 16.3-10.7 34.9-11.9 62.1C.3 177.8 0 186.5 0 256s.3 78.2 1.5 105.5c1.2 27.2 5.6 45.9 11.9 62.1C20 440.5 28.7 454.8 43 469c14.2 14.2 28.5 23 45.3 29.5 16.3 6.3 34.9 10.7 62.1 11.9 27.3 1.2 36 1.5 105.5 1.5s78.2-.3 105.5-1.5c27.2-1.2 45.9-5.6 62.1-11.9 16.8-6.5 31.1-15.3 45.3-29.5s23-28.5 29.5-45.3c6.3-16.3 10.7-34.9 11.9-62.1 1.2-27.3 1.5-36 1.5-105.5s-.3-78.2-1.5-105.5c-1.2-27.2-5.6-45.9-11.9-62.1-6.3-17-15-31.3-29.3-45.5-14.2-14.2-28.5-23-45.3-29.5-16.3-6.3-34.9-10.7-62.1-11.9C334.2.3 325.5 0 256 0"/><path fill="#fff" d="M256 124.5c-72.6 0-131.5 58.9-131.5 131.5S183.4 387.5 256 387.5 387.5 328.6 387.5 256 328.6 124.5 256 124.5m0 216.8c-47.1 0-85.3-38.2-85.3-85.3s38.2-85.3 85.3-85.3c47.1 0 85.3 38.2 85.3 85.3s-38.2 85.3-85.3 85.3m167.4-222c0 16.955-13.745 30.7-30.7 30.7S362 136.255 362 119.3s13.745-30.7 30.7-30.7 30.7 13.745 30.7 30.7"/></symbol>
<symbol id="icon--linkedin" viewBox="791 591 19 18"><path d="M791.211 608.965h3.827v-12.532h-3.827v12.532m3.952-16.02c0 1.076-.781 1.948-2.064 1.948-1.208 0-1.989-.872-1.989-1.948 0-1.102.805-1.948 2.039-1.948s1.989.846 2.01 1.948m2.169 7.486c0-1.563-.05-2.87-.1-3.998h3.323l.177 1.743h.075c.503-.82 1.737-2.025 3.802-2.025 2.518 0 4.406 1.717 4.406 5.408v7.406h-3.827v-6.945c0-1.614-.554-2.716-1.939-2.716-1.057 0-1.687.743-1.964 1.461-.101.256-.126.615-.126.974v7.227h-3.827v-8.534" fill="#fff" fill-rule="evenodd"/></symbol>
<symbol id="icon--twitter" viewBox="0 0 20 17"><path d="M20 1.924a8.212 8.212 0 0 1-2.357.646A4.115 4.115 0 0 0 19.447.3a8.221 8.221 0 0 1-2.606.996A4.1 4.1 0 0 0 13.846 0C11.197 0 9.25 2.472 9.849 5.04A11.648 11.648 0 0 1 1.392.753a4.107 4.107 0 0 0 1.27 5.478 4.083 4.083 0 0 1-1.858-.513C.759 7.619 2.122 9.397 4.095 9.793a4.111 4.111 0 0 1-1.853.07 4.106 4.106 0 0 0 3.833 2.849A8.25 8.25 0 0 1 0 14.411a11.617 11.617 0 0 0 6.29 1.844c7.618 0 11.922-6.435 11.663-12.206A8.319 8.319 0 0 0 20 1.925" fill="#fff" fill-rule="evenodd"/></symbol>
</svg>