<svg id="Layer_1" data-name="Layer 1" xmlns="http://www.w3.org/2000/svg" viewBox="50 50 500 100"><defs><style>.cls-1{fill:#f4a98c;} path{fill:#fff;}path:last-of-type{fill:#171717;}</style></defs><title>Artboard 1 copy 8</title><path d="M369.16,94.21V93h.93c2.11,0,2.72-.68,2.72-2.93V73.32c0-2.29-.61-2.94-2.86-2.94h-.79V69.17h19.69l.78,5.72-1.15.18a15.93,15.93,0,0,0-1-1.79c-1.4-2.11-2.86-2.9-6.62-2.9h-4.29V80.65h3.72c2.22,0,3.11-1.32,3.18-3.36V76.5h1.25v9.16h-1.24v-.89c-.11-2-1-2.9-3.29-2.9h-3.61V90.2c0,2,.46,2.79,2.39,2.79h2.72c3.51,0,5.37-1.07,6.8-3.18a13.84,13.84,0,0,0,1.25-2.43l.21-.52,1.09.3-1.33,7Z"/><path d="M200.06,94.5l-16.7-20.79V86.55c0,5.41,1,6.23,3.22,6.44l.78.07v1.15H178V93.06l1-.07c1.86-.14,3-1.32,3-6.44V75.28c0-3.68-1.43-4.9-3.47-4.9h-.72V69.17h5.37a2,2,0,0,1,2,.93L199.63,88V76c0-4.26-1.11-5.44-3.29-5.62l-.93-.07V69.17h9.41v1.14l-.89.07c-2,.15-2.94,1.4-2.94,5.66V94.5Z"/><path d="M232.11,73.1c-1.07-1.86-1.75-2.68-3.29-2.75h-.54V69.17h9.92v1.14h-.83c-1.61.07-1.89,1.22-1.18,2.4l5.4,9.19,4.87-8.05c1.14-1.82.86-3.47-.89-3.54h-.9V69.17h8.23v1.18h-.54c-1.79,0-2.93,1.43-4.43,3.83L242.2,83.3v6.76c0,2.25.61,2.93,2.83,2.93h.86v1.22H234.8V93h.89c2.15,0,2.76-.64,2.76-2.93v-6.4Z"/><path d="M276.36,93h.93c2.12,0,2.72-.68,2.72-2.93V73.32c0-2.33-.6-2.94-2.89-2.94h-.76V69.17h11.06v1.21h-.82c-2.19,0-2.83.68-2.83,2.94V90.17c0,2.11.43,2.82,2.4,2.82h2.32c3.87,0,6.05-1.5,7.37-3.82a23.19,23.19,0,0,0,1.22-2.51l1.22.29-1.39,7.26H276.36Z"/><path d="M311.82,94.71c-6.23,0-13-4.22-13-13,0-9,6.83-13,12.92-13s13.06,3.82,13.06,13C324.81,90.35,318.26,94.71,311.82,94.71Zm-.43-24.9c-5.12,0-8.19,4.26-8.19,11.52,0,6.58,3.29,12.24,9,12.24,5.51,0,8.26-4.69,8.26-11.52S316.76,69.81,311.39,69.81Z"/><path d="M337.11,94.21H325.84V93h.75c2.25,0,2.9-.64,2.9-2.93V73.32c0-2.26-.57-2.94-2.79-2.94h-.86V69.17h11.48c5,0,8.66,2,8.66,6.4,0,5.15-3.65,7.44-9.26,7.44a29.61,29.61,0,0,1-3.47-.21v7.26c0,2.29.57,2.93,3.11,2.93h.75Zm-3.86-12.59c1.1.1,2.46.18,3.32.18,4,0,5.55-2.58,5.55-6,0-3.18-1.58-5.44-5.58-5.44h-2.4c-.75,0-.89.18-.89.93Z"/><path d="M391.52,93h.93c2.11,0,2.72-.68,2.72-2.93V73.32c0-2.29-.61-2.94-2.86-2.94h-.79V69.17H404c7,0,13.2,3.47,13.2,12,0,8-5.69,13-13.42,13H391.52Zm10.84,0h1.14c6.16,0,9.31-4.9,9.31-11.48s-3.3-11.13-9.2-11.13h-3.83c-.68,0-.86.22-.86.93V89.52C398.92,92.28,399.75,93,402.36,93Z"/><path d="M425.61,90.06c0,2.33.61,2.93,2.9,2.93h.75v1.22H418.2V93H419c2.18,0,2.82-.68,2.82-2.93V73.32c0-2.26-.6-2.94-2.79-2.94h-.86V69.17h11.06v1.21h-.89c-2.15,0-2.76.65-2.76,2.94Z"/><path d="M167.8,124H156.1v-1.22h.82c2.22,0,2.83-.67,2.83-2.93V103.11c0-2.29-.61-2.94-2.9-2.94h-.75V99h11.48c5.3,0,7.69,2.39,7.69,5.76,0,2.82-2,5-4.93,5.76,3.5.36,6.22,2.65,6.22,6.15C176.56,120.92,173.52,124,167.8,124Zm-4.3-13.74h2.76a4.87,4.87,0,0,0,5.15-5.22c0-3.4-1.61-4.87-4.9-4.87h-3Zm4.3,12.52c3.18,0,4.79-2.68,4.79-5.93,0-3.94-2.25-5.48-6.58-5.37H163.5v7.66c0,2.71.9,3.64,3.37,3.64Z"/><path d="M176.87,86.86l-.2.52a14.55,14.55,0,0,1-1.25,2.43c-1.44,2.11-3.3,3.18-6.8,3.18H165.9c-1.93,0-2.4-.75-2.4-2.79V81.87h3.62c2.29,0,3.18.89,3.29,2.9v.89h1.24V76.5h-1.25v.79c-.07,2-1,3.36-3.19,3.36H163.5V70.38h4.3c3.75,0,5.22.79,6.61,2.9a15.88,15.88,0,0,1,1,1.79l1.14-.18-.78-5.72H156.1v1.21h.78c2.26,0,2.87.65,2.87,2.94V90.06c0,2.25-.61,2.93-2.72,2.93h-.93v1.22h20.54l1.32-7Z"/><path d="M370,93h-.68c-1.5-.07-2.32-1.18-3-2.79l-8.53-21.7-3,2.3.43.94-6.73,17.68c-.75,2-1.9,3.57-3.51,3.57h-.71v1.22h8.4V93h-.89c-2.15-.07-2.57-1.46-1.82-3.5l1.61-4.37h8.91L362.37,90c.71,1.86.35,2.93-1.9,3h-.86v1.22H370Zm-18-9.08L356,73.32,360,83.91Z"/><path d="M453.94,93h-.68c-1.5-.07-2.32-1.18-3-2.79l-8.54-21.7-3,2.3.42.94-6.73,17.68c-.75,2-1.89,3.57-3.5,3.57h-.72v1.22h8.4V93h-.89c-2.14-.07-2.57-1.46-1.82-3.5l1.61-4.37h8.91L446.29,90c.71,1.86.36,2.93-1.9,3h-.86v1.22h10.41Zm-18-9.08,3.9-10.59L444,83.91Z"/><path d="M278.62,124.29,261.91,103.5v12.85c0,5.4,1,6.22,3.22,6.43l.79.07V124h-9.34v-1.15l1-.07c1.86-.14,3-1.32,3-6.43V105.08c0-3.69-1.43-4.91-3.47-4.91h-.71V99h5.36a2,2,0,0,1,2,.93l14.42,17.92v-12c0-4.26-1.11-5.44-3.29-5.62l-.93-.06V99h9.41v1.15l-.9.06c-2,.15-2.93,1.4-2.93,5.66v18.46Z"/><path d="M306.45,122.78h-.68c-1.5-.07-2.32-1.18-3-2.79l-8.53-21.7-3,2.3.43.94L285,119.21c-.75,2-1.9,3.57-3.51,3.57h-.71V124h8.4v-1.22h-.89c-2.15-.07-2.57-1.46-1.82-3.5l1.61-4.37h8.9l1.87,4.87c.71,1.86.35,2.93-1.9,3H296V124h10.41Zm-18-9.08,3.9-10.59,4.08,10.59Z"/><path d="M258.41,122.78h-.68c-1.5-.07-2.33-1.18-3-2.79l-8.54-21.7-3,2.3.42.94-6.72,17.68c-.75,2-1.9,3.57-3.51,3.57h-.72V124h8.41v-1.22h-.89c-2.15-.07-2.58-1.46-1.83-3.5l1.61-4.37h8.91l1.86,4.87c.72,1.86.36,2.93-1.89,3H248V124h10.41Zm-18-9.08,3.9-10.59,4.08,10.59Z"/><path d="M230.08,119.85c0,2.33.6,2.93,2.89,2.93h.75V124H222.67v-1.22h.82c2.18,0,2.83-.67,2.83-2.93V103.11c0-2.26-.61-2.94-2.79-2.94h-.86V99h11.05v1.21h-.89c-2.15,0-2.75.65-2.75,2.94Z"/><path d="M177.77,124v-1.22h.93c2.11,0,2.72-.67,2.72-2.93V103.11c0-2.29-.61-2.94-2.86-2.94h-.79V99h19.68l.78,5.72-1.14.18a16.87,16.87,0,0,0-1-1.79c-1.4-2.11-2.86-2.9-6.62-2.9h-4.29v10.27h3.72c2.21,0,3.11-1.32,3.18-3.36v-.79h1.25v9.16h-1.24v-.89c-.11-2-1-2.9-3.29-2.9h-3.61V120c0,2,.46,2.79,2.39,2.79h2.72c3.51,0,5.37-1.07,6.8-3.18a13.84,13.84,0,0,0,1.25-2.43l.2-.52,1.09.3-1.32,7Z"/><path d="M200.14,122.78h.93c2.12,0,2.72-.68,2.72-2.93V103.1c0-2.32-.6-2.93-2.89-2.93h-.76V99H211.2v1.22h-.82c-2.19,0-2.83.68-2.83,2.93V120c0,2.11.43,2.83,2.4,2.83h2.32c3.87,0,6-1.5,7.37-3.83a22.18,22.18,0,0,0,1.22-2.5l1.22.28L220.69,124H200.14Z"/><path d="M205.12,81.69c0-8.48,6.3-13,13.17-13A14.79,14.79,0,0,1,225,70.49a1.71,1.71,0,0,0,.76.22c.25,0,.39-.16.53-.39s.61-1.15.61-1.15h.86l.11,7.72h-1.2c-.26-1.73-2.05-7.08-8.11-7.08s-9.08,4.76-9.08,11.59,3.43,12.17,9.3,12.17c5.2,0,7.49-4.49,8-7.45H228v8.09h-1s-.45-.94-.59-1.25-.25-.4-.47-.4a1.28,1.28,0,0,0-.53.18,12.38,12.38,0,0,1-7,2C210.81,94.71,205.12,89.63,205.12,81.69Z"/><path d="M251.86,81.69c0-8.48,6.3-13,13.17-13a14.79,14.79,0,0,1,6.72,1.82,1.67,1.67,0,0,0,.75.22c.25,0,.4-.16.54-.39s.61-1.15.61-1.15h.86l.1,7.72h-1.2c-.25-1.73-2-7.08-8.1-7.08s-9.09,4.76-9.09,11.59,3.44,12.17,9.31,12.17c5.2,0,7.48-4.49,8-7.45h1.24v8.09h-1s-.45-.94-.59-1.25-.25-.4-.47-.4a1.24,1.24,0,0,0-.53.18,12.39,12.39,0,0,1-7,2C257.55,94.71,251.86,89.63,251.86,81.69Z"/><circle class="cls-1" cx="96.45" cy="96.39" r="44.25" transform="translate(-19.57 24.74) rotate(-13.28)"/><path d="M79.46,91.54a5.45,5.45,0,0,0-3.41,4.63,5,5,0,0,0,2.08,4.14,5.29,5.29,0,0,0,5.26.33ZM90,75.67l-1.5-3.44c-1.47.84-2.29,3.18-2.14,5Zm15.91,30-.29,1.43.82-.36c.61,0,1.39.43,2,.43a1.65,1.65,0,0,0,.74-.18l-.35-.89a.93.93,0,0,1-.48.14C107.68,106.21,106.92,105.32,105.86,105.62Zm15.38,10.89a6.78,6.78,0,0,1-3.85,7.15l-3.81-8.76a15.91,15.91,0,0,0,3.36-5.68l1.46,3.37c2.4-1,2.46-5.59.64-7.75l-2,.87a4,4,0,0,1-1.39-3c0-2.33,1.27-3.14,3.29-4.1l.82,1.79c2.06-.89,2.19-4.76.56-6.68l-2.66,1.15-2.36-5.45a5.62,5.62,0,0,0,3.48-4.09,5.42,5.42,0,0,0,0-2.16c-.36,0-2.94,0-4.59-3.74l-3.44-7.91c-1.17-1.21-4.12-3.58-6.62-3.58a5.24,5.24,0,0,0-3.1.86,4.62,4.62,0,0,0-6.29.24l.69,1.58a14.54,14.54,0,0,1,5.09-.94c6.26,0,13,6.72,13,12.49l.54,2.24.43,1.78a6.88,6.88,0,0,0-5.86-.09c-1.36.61-3.1,2.08-3.1,4.14a3.4,3.4,0,0,0,0,.43,5.32,5.32,0,0,0,.89,2.6l2-.84a2.35,2.35,0,0,1-.8-.82l1.52-.66a1.18,1.18,0,0,0,1.06,1.41,1.15,1.15,0,0,0,1.16-1.15,1.11,1.11,0,0,0-.13-.57,5.21,5.21,0,0,1,1.4.71l.16-.85a6.81,6.81,0,0,0-2.62-1.18l-1.06.45.39-1.71a3.71,3.71,0,0,1,1.56-.36,6,6,0,0,1,3.49.92,6.56,6.56,0,0,0-.78,3.09,8.1,8.1,0,0,0,.76,2.86l-3.09,18.22c-2.4,0-4,3.35-7.78,3.35-1.59,0-4.37-.79-4.37-2.63s2.53-2.62,4.4-2.62a5.68,5.68,0,0,1,3.58,1.11l.76-.33-1-3.18a5.21,5.21,0,0,1-2.73.65,10.3,10.3,0,0,1-3.4-.58l.22-1.72a2.64,2.64,0,0,1,1.35,0,4.8,4.8,0,0,1,1.82.79l1-.44-1-.74a4.26,4.26,0,0,0-2.06-1l.56-3.09a2.09,2.09,0,0,0,2,.44,3.35,3.35,0,0,0,.08,1.89l1.16-.5-.4-1.82a3.22,3.22,0,0,0,1.4-2.52l-1.67.73-2.15-9.41a8.48,8.48,0,0,0-1.77-3.5A7.58,7.58,0,0,0,96,85.28a8,8,0,0,0-4.44,1.55l-3-7L87,80.48a4.86,4.86,0,0,1-3.58,5.38l-2.06-4.68a4.22,4.22,0,0,0-2.17,5.18,4,4,0,0,0,5.17,2.17,4.88,4.88,0,0,0,1-.63c2.07,2.77,2,7-.4,9.11l1.29,3a7.94,7.94,0,0,1-3.92,10.18l-1.95.92-3-6.81a4.77,4.77,0,0,0-3,5.81,4.72,4.72,0,0,0,6.67,2.73l1.28,2.92c-1.83,1.18-2.74,3.78-2.68,6l-4.06,1.8a6.74,6.74,0,0,1-3.76-7.11,13.7,13.7,0,0,1-4.53-10.2,14.34,14.34,0,0,1,1.26-5.92,11.42,11.42,0,0,1-.92-4.5,11.76,11.76,0,0,1,3-7.9,11.09,11.09,0,0,1-.21-2.17,11.21,11.21,0,0,1,4.72-9.22c-.61-3.11.68-5.25,2.44-6.18l2-1c2.87-4.87,9.7-8.31,17.2-8.31,7.17,0,13.35,3.14,16.21,7.66l3.26,1.68c1.67.89,2.92,2.87,2.52,5.74L121.09,80a12.28,12.28,0,0,1,1.34,8,11.71,11.71,0,0,1,3,7.9,11.42,11.42,0,0,1-.92,4.5,14.34,14.34,0,0,1,1.26,5.92A13.67,13.67,0,0,1,121.24,116.51Zm-14.59.3,3.87-1.69-.2,1.24a15.73,15.73,0,0,1-3.13,1.68ZM94.25,128,90,118.21A23.61,23.61,0,0,0,101.12,121a15.9,15.9,0,0,0,9-2.86l-1.1,7.71a17.2,17.2,0,0,1-8,4.14l.69-6.1A9.47,9.47,0,0,0,94.25,128Zm5.53-39.12-.15,1a13.72,13.72,0,0,0-3.16-1l-2.34,1,.21-1.17.13-.76a5.48,5.48,0,0,1,1.82-.31A5.72,5.72,0,0,1,99.78,88.88Zm-2.16,16.94-1,6.12-2.81-1.54a13.14,13.14,0,0,0-2.37-7.6,4.93,4.93,0,0,1,.14-6.21,6.85,6.85,0,0,1-.72-4.82l1.89.92,1.93.94,1.62-.7a4.76,4.76,0,0,1-1.43-.9,4.25,4.25,0,0,1-.35-.41l2.2-1a1.23,1.23,0,0,0-.1.44,1.2,1.2,0,0,0,1.08,1.22,1.15,1.15,0,0,0,1.16-1.15,1.22,1.22,0,0,0-.12-.57,15,15,0,0,1,2.43,1,17,17,0,0,1-1.64,1.66l-.87,6.52,2.36,1.24A6,6,0,0,1,97.62,105.82ZM86.83,119.09l-2.63-6a3.28,3.28,0,1,1,2.63,6Zm9.62-64.25A41.56,41.56,0,1,0,138,96.39,41.55,41.55,0,0,0,96.45,54.84Z"/></svg>