<?xml version="1.0" encoding="UTF-8"?>
<svg width="505px" height="504px" viewBox="0 0 505 504" version="1.1" xmlns="http://www.w3.org/2000/svg" xmlns:xlink="http://www.w3.org/1999/xlink">
    <!-- Generator: Sketch 59 (86127) - https://sketch.com -->
    <title>Path</title>
    <desc>Created with Sketch.</desc>
    <g id="Page-1" stroke="none" stroke-width="1" fill="none" fill-rule="evenodd">
        <g id="redo-solid" fill="#FFFFFF" fill-rule="nonzero">
            <path d="M492.33,-7.65744526e-06 L444.92,-7.65744526e-06 C441.636136,-7.65744526e-06 438.494223,1.33851688 436.226658,3.71379072 C433.959094,6.08906455 432.764014,9.28984099 432.92,12.57 L436.92,95.33 C389.848146,39.8612141 320.74984,7.91988905 248,7.99999234 C111.34,7.99999234 -0.1,119.53 -6.72482294e-05,256.19 C0.1,393.07 111.1,504.000247 248,504.000247 C309.410438,504.086732 368.652788,481.303133 414.18,440.09 C416.637991,437.890244 418.082097,434.775683 418.172901,431.47835 C418.263705,428.181018 416.9932,424.9917 414.66,422.66 L380.66,388.66 C376.19491,384.196063 369.034471,383.955633 364.28,388.11 C309.270177,436.508131 230.030682,445.763125 165.348083,411.344799 C100.665484,376.926472 64.0724382,306.035701 73.4807026,233.372475 C82.8889671,160.70925 136.33018,101.475904 207.645652,84.6662893 C278.961125,67.8566748 353.230496,96.9876378 394.1,157.8 L292.57,152.93 C289.289841,152.774014 286.089065,153.969094 283.713791,156.236658 C281.338517,158.504223 279.996293,161.646136 280,164.93 L280,212.34 C280,218.967417 285.372583,224.34 292,224.34 L492.33,224.34 C498.957417,224.34 504.33,218.967417 504.33,212.34 L504.33,11.9999923 C504.33,5.372583 498.957417,-7.65744526e-06 492.33,-7.65744526e-06 Z" id="Path"></path>
        </g>
    </g>
</svg>