<svg width="505" height="504" viewBox="0 0 505 504" xmlns="http://www.w3.org/2000/svg"><title>Path</title><desc>Created with Sketch.</desc><path d="M492.33 0h-47.41a12 12 0 00-12 12.57l4 82.76A247.42 247.42 0 00248 8C111.34 8-.1 119.53 0 256.19.1 393.07 111.1 504 248 504a247.101 247.101 0 00166.18-63.91 12 12 0 00.48-17.43l-34-34a12 12 0 00-16.38-.55c-55.01 48.398-134.25 57.653-198.932 23.235-64.683-34.419-101.276-105.31-91.867-177.973 9.408-72.663 62.85-131.896 134.165-148.706C278.96 67.856 353.23 96.988 394.1 157.8l-101.53-4.87a12 12 0 00-12.57 12v47.41c0 6.627 5.373 12 12 12h200.33c6.627 0 12-5.373 12-12V12c0-6.627-5.373-12-12-12z" fill="#FFF"/></svg>